<svg width="64" height="64" viewBox="0 0 64 64" fill="white" xmlns="http://www.w3.org/2000/svg">
<mask id="mask0" mask-type="alpha" maskUnits="userSpaceOnUse" x="4" y="1" width="56" height="62">
<path d="M26 3.4641C29.7128 1.32051 34.2872 1.32051 38 3.4641L53.7128 12.5359C57.4256 14.6795 59.7128 18.641 59.7128 22.9282V41.0718C59.7128 45.359 57.4256 49.3205 53.7128 51.4641L38 60.5359C34.2872 62.6795 29.7128 62.6795 26 60.5359L10.2872 51.4641C6.57438 49.3205 4.28719 45.359 4.28719 41.0718V22.9282C4.28719 18.641 6.57437 14.6795 10.2872 12.5359L26 3.4641Z" fill="#FD4D5A"/>
</mask>
<g mask="url(#mask0)">
<rect x="-7.22919" y="-15.0963" width="91.6412" height="89.0897" fill="#FD4D5A"/>
<path d="M54.6445 4.06143C54.6445 30.5332 -4.35882 37.7625 -7.86713 68.8057L30.9369 75.9286L87.0697 19.2641C81.5061 11.0426 54.6445 -22.4103 54.6445 4.06143Z" fill="#FF6E75"/>
<path d="M66.1262 10.7376C66.1262 37.2093 7.12293 44.4386 3.61462 75.4818L42.4186 82.6047L98.5515 25.9403C92.9878 17.7188 66.1262 -15.7342 66.1262 10.7376Z" fill="#FF949C"/>
</g>
<mask id="mask1" mask-type="alpha" maskUnits="userSpaceOnUse" x="15" y="16" width="34" height="32">
<path d="M47.1544 47.4983H47.6544V46.9983V17.2225V16.7225H47.1544H42.794H42.4709L42.3382 17.017L33.0151 37.6981L33.0146 37.6991C32.7409 38.3098 32.4032 39.1492 32.0024 40.2141C31.753 39.5369 31.418 38.726 31.0007 37.785C31.0005 37.7846 31.0004 37.7843 31.0002 37.784L21.8646 17.0212L21.7332 16.7225H21.4069H16.7973H16.2973V17.2225V46.9983V47.4983H16.7973H20.1611H20.6611V46.9983V27.0647C20.6611 26.233 20.6559 25.471 20.6453 24.7792L30.6681 47.2023L30.8004 47.4983H31.1245H32.8272H33.1521L33.2841 47.2014L43.2392 24.8126C43.2043 25.6116 43.1868 26.3486 43.1868 27.0232V46.9983V47.4983H43.6868H47.1544Z" fill="#0D0117" stroke="black"/>
</mask>
<g mask="url(#mask1)">
<rect x="2.55145" y="0.63797" width="68.2525" height="71.0166" fill="#303030"/>
<path d="M54.6445 4.06131C54.6445 30.533 -4.35882 37.7623 -7.86713 68.8055L30.9369 75.9284L87.0697 19.264C81.5061 11.0425 54.6445 -22.4104 54.6445 4.06131Z" fill="#928D8D"/>
<path d="M66.1262 10.7375C66.1262 37.2092 7.12293 44.4385 3.61462 75.4817L42.4186 82.6046L98.5515 25.9401C92.9878 17.7187 66.1262 -15.7343 66.1262 10.7375Z" fill="#B8ABAC"/>
</g>
</svg>
