<svg width="1920" height="114" viewBox="0 0 1920 114" fill="none" xmlns="http://www.w3.org/2000/svg">
<mask id="mask0" mask-type="alpha" maskUnits="userSpaceOnUse" x="0" y="0" width="1920" height="114">
<rect width="1920" height="114" fill="white"/>
</mask>
<g mask="url(#mask0)">
<path d="M1213.68 780.341C329.054 739.43 1097.58 -186.035 -169.102 -158.393H-186.242L-398 992.081L1108.08 1122L2095 1009.22C2096.1 946.563 1921.39 813.069 1213.68 780.341Z" fill="#BE373E" stroke="#BE373E"/>
<path d="M1598.04 194.659C713.763 235.57 1481.98 1161.04 215.806 1133.39H198.673L-13 -17.081L1492.48 -147L2478.99 -34.2193C2480.1 28.4367 2305.46 161.931 1598.04 194.659Z" fill="#FD4D5A" stroke="#FD4D5A"/>
<path d="M364.897 -1414.73C-342.871 -836.758 -1330.32 272.096 382.034 83.7251C2094.39 -104.646 1084.09 -993.733 364.897 -1414.73Z" fill="#0D0117"/>
<path d="M-177.953 -1414.73H364.897M364.897 -1414.73C-342.871 -836.757 -1330.32 272.096 382.034 83.7251C2094.39 -104.646 1084.09 -993.733 364.897 -1414.73ZM1194.65 -1449L1112.84 -1414.73" stroke="#F93E39"/>
</g>
</svg>
