<svg width="1920" height="114" viewBox="0 0 1920 114" fill="none" xmlns="http://www.w3.org/2000/svg">
<mask id="mask0" mask-type="alpha" maskUnits="userSpaceOnUse" x="0" y="0" width="1920" height="114">
<rect width="1920" height="114" fill="white"/>
</mask>
<g mask="url(#mask0)">
<path d="M1213.68 894.341C329.054 853.43 1097.58 -72.0354 -169.102 -44.3931H-186.242L-398 1106.08L1108.08 1236L2095 1123.22C2096.1 1060.56 1921.39 927.069 1213.68 894.341Z" fill="#BE373E" stroke="#BE373E"/>
<path d="M1196.04 198.659C311.763 239.57 1079.98 1165.04 -186.194 1137.39H-203.327L-415 -13.081L1090.48 -143L2076.99 -30.2193C2078.1 32.4367 1903.46 165.931 1196.04 198.659Z" fill="#FD4D5A" stroke="#FD4D5A"/>
<path d="M364.897 -1300.73C-342.871 -722.758 -1330.32 386.096 382.034 197.725C2094.39 9.35413 1084.09 -879.733 364.897 -1300.73Z" fill="#0D0117"/>
<path d="M-177.953 -1300.73H364.897M364.897 -1300.73C-342.871 -722.757 -1330.32 386.096 382.034 197.725C2094.39 9.35417 1084.09 -879.733 364.897 -1300.73ZM1194.65 -1335L1112.84 -1300.73" stroke="#F93E39"/>
</g>
</svg>
